<svg xmlns="http://www.w3.org/2000/svg" fill="none" viewBox="0 0 320 320"><path stroke="#020F66" stroke-width="4" d="M179.76 95a14 14 0 0 1 14 14v107.06H15.4V109a14 14 0 0 1 14-14h150.36Zm16.33 121.06a2 2 0 0 1 2 2 6.65 6.65 0 0 1-6.66 6.65H16.65a6.65 6.65 0 0 1-6.65-6.65c0-1.1.9-2 2-2h184.09Z"></path><path stroke="#2CDDE9" stroke-width="2" d="M179.35 101.49a9 9 0 0 1 9 9v99.09H21.9v-99.1a9 9 0 0 1 9-9h148.46Z"></path><rect width="54.05" height="102.69" x="255.95" y="121.81" stroke="#020F66" stroke-width="4" rx="11"></rect><circle cx="240.24" cy="177.15" r="4.32" stroke="#2CDDE9" stroke-width="2"></circle><circle cx="224.03" cy="177.15" r="4.32" stroke="#2CDDE9" stroke-width="2"></circle><circle cx="207.81" cy="177.15" r="4.32" stroke="#2CDDE9" stroke-width="2"></circle><path fill="#020F66" d="M290.39 169.68c.13-.94.23-2.02.11-3.1-.28-2.73-1.64-4.57-4.02-5.47a8.3 8.3 0 0 0-4.77-.29 6.7 6.7 0 0 0-3.31 1.66 6.59 6.59 0 0 0-1.92 4.6c-.05.86 0 1.73.16 2.57-.57.34-1.03.97-.76 2.14.08.33.2.67.37 1.02l.45.88c.2.37.38.73.55 1.1a11.1 11.1 0 0 0 2.46 3.66V180c0 .88-.33 1.7-.93 2.31l-2.27 2.34a.58.58 0 0 0 0 .8c.22.23.57.23.79 0l2.26-2.33a4.43 4.43 0 0 0 1.26-3.12v-.71c.87.52 1.79.79 2.7.79a5.2 5.2 0 0 0 3.02-1.02v.94a4.4 4.4 0 0 0 1.26 3.12l2.26 2.34a.56.56 0 0 0 .79 0 .58.58 0 0 0 0-.81l-2.27-2.34a3.29 3.29 0 0 1-.93-2.3v-1.92a10.6 10.6 0 0 0 1.9-2.95l.2-.44c.23-.51.45-1 .73-1.44.2-.34.38-.74.53-1.22.32-1.04.13-1.77-.62-2.36Zm-.44 2c-.12.4-.25.7-.41.96-.32.52-.56 1.05-.8 1.58l-.19.43a8.82 8.82 0 0 1-2.28 3.19c-1.74 1.46-3.76 1.47-5.54 0a9.1 9.1 0 0 1-2.47-3.54c-.18-.4-.38-.79-.58-1.16-.15-.27-.3-.56-.43-.84a3.68 3.68 0 0 1-.28-.78c-.14-.6-.03-.82.5-1a.6.6 0 0 0 .36-.68 9.6 9.6 0 0 1-.23-2.7c.1-1.68.6-2.9 1.56-3.83a5.55 5.55 0 0 1 2.79-1.37c.6-.13 1.19-.2 1.75-.2.84 0 1.64.15 2.4.44 1.99.75 3.07 2.23 3.31 4.52.11 1.1-.01 2.16-.17 3.17-.03.22.07.45.26.57.58.36.66.58.46 1.25h-.01Zm-18.74-15.06h-3.34c-.33 0-.6.3-.6.69v3.75c0 .37.27.68.6.68.34 0 .61-.3.61-.68v-3.07h2.73c.34 0 .61-.31.61-.7 0-.37-.27-.68-.6-.68v.01Zm27.87 0h-3.34c-.33 0-.6.3-.6.69 0 .38.27.68.6.68h2.73v3.07c0 .38.27.69.61.69.34 0 .61-.3.61-.69v-3.75c0-.37-.27-.68-.6-.68v-.01Zm-27.87 31.2h-2.73v-2.73a.61.61 0 1 0-1.22 0v3.34c0 .33.28.6.61.6h3.34a.61.61 0 0 0 0-1.21Zm27.87-3.34a.61.61 0 0 0-.6.61v2.73h-2.74a.61.61 0 0 0 0 1.22h3.34a.6.6 0 0 0 .61-.6v-3.34a.6.6 0 0 0-.6-.6v-.02Z"></path><path stroke="#020F66" stroke-linejoin="round" stroke-width="4" d="M118.02 150.42v-9.62c0-7.1-6.52-12.84-14.51-12.84-8 0-14.51 5.76-14.51 12.84v9.62"></path><rect width="44.65" height="37.07" x="81.18" y="150.42" stroke="#020F66" stroke-width="4" rx="6"></rect><path fill="#020F66" d="M102.02 168.07a2.61 2.61 0 0 1-1.4-2.28v-.8c0-1.45 1.25-2.63 2.8-2.63a2.72 2.72 0 0 1 2.78 2.63v.8c0 .97-.56 1.82-1.4 2.28v5.23c0 .72-.62 1.31-1.39 1.31-.77 0-1.4-.59-1.4-1.31v-5.23Z"></path></svg>