<svg xmlns="http://www.w3.org/2000/svg" fill="none" viewBox="0 0 320 320"><path stroke="#020F66" stroke-linecap="round" stroke-linejoin="round" stroke-width="2" d="M190.2 256.82h73.78"></path><path stroke="#020F66" stroke-linejoin="round" stroke-width="2" d="M214.4 233.76v23.31m23.32-23.31v23.31"></path><path stroke="#020F66" stroke-width="4" d="M178.64 126.3H296a14 14 0 0 1 14 14v79.1a14 14 0 0 1-14 14H156.66a14 14 0 0 1-14-14v-36.2"></path><path stroke="#2CDDE9" stroke-width="2" d="M177.66 131.17h117.9a9 9 0 0 1 9 9v79.15a9 9 0 0 1-9 9H157.34a9 9 0 0 1-9-9v-35.7"></path><path stroke="#020F66" stroke-linecap="round" stroke-linejoin="round" stroke-width="2" d="M58 206.62h73.78"></path><path stroke="#020F66" stroke-linejoin="round" stroke-width="2" d="M81.5 184.02v22.53m24.1-22.53v22.53"></path><rect width="167.88" height="107.25" x="10" y="75.98" stroke="#020F66" stroke-width="4" rx="14"></rect><rect width="157" height="96.37" x="15.44" y="81.42" stroke="#2CDDE9" stroke-width="2" rx="9"></rect><path fill="#2CDDE9" d="M127.6 243.53a2 2 0 0 0-2.27-3.3l2.26 3.3Zm-58.08 3.08.7-1.88-.7 1.88Zm-37.2-43.33a2 2 0 0 0-2.77.56l-9.98 14.98a2 2 0 0 0 3.33 2.22l8.87-13.32 13.31 8.87a2 2 0 0 0 2.22-3.33l-14.98-9.98Zm94.14 38.6-1.13-1.65-.05.03-.18.12-.78.48c-.7.41-1.73 1-3.09 1.67a64.21 64.21 0 0 1-51.01 2.2l-1.4 3.75a68.21 68.21 0 0 0 54.19-2.37 50.18 50.18 0 0 0 4.48-2.52l.07-.04.02-.02-1.12-1.65Zm-56.24 2.86c-15.7-5.87-24.96-15.95-30.3-24.56a58.93 58.93 0 0 1-5.4-11.1 44.66 44.66 0 0 1-1.35-4.53l-1.96.4-1.96.4v.03l.03.08a18.38 18.38 0 0 0 .32 1.3c.24.88.61 2.14 1.16 3.67a62.9 62.9 0 0 0 5.76 11.86c5.71 9.2 15.6 19.95 32.3 26.2l1.4-3.75ZM190.46 76.9a2 2 0 0 0 2.34 3.25l-2.34-3.24Zm57.98-4.52.65-1.9-.65 1.9Zm38.26 42.38a2 2 0 0 0 2.76-.62l9.6-15.23a2 2 0 0 0-3.38-2.13l-8.53 13.53-13.53-8.54a2 2 0 0 0-2.14 3.39l15.22 9.6Zm-95.07-36.23 1.17 1.62h.01l.04-.03.18-.13.77-.5c.68-.43 1.7-1.04 3.04-1.74a64.21 64.21 0 0 1 50.94-3.48l1.31-3.78A68.21 68.21 0 0 0 195 74.2a50.12 50.12 0 0 0-4.43 2.63l-.07.05-.02.01 1.16 1.63Zm56.16-4.26c15.83 5.47 25.34 15.31 30.9 23.79a58.87 58.87 0 0 1 5.67 10.96 44.6 44.6 0 0 1 1.45 4.44l.01.04v.01l1.95-.44 1.95-.44v-.04l-.02-.08a21.49 21.49 0 0 0-.36-1.3c-.26-.87-.66-2.11-1.25-3.63a62.92 62.92 0 0 0-6.06-11.72c-5.93-9.05-16.1-19.55-32.94-25.37l-1.3 3.78Z"></path><path stroke="#020F66" stroke-linejoin="round" stroke-width="4" d="M239.38 173.28v-8.66c0-6.39-5.86-11.55-13.05-11.55s-13.05 5.2-13.05 11.55v8.66"></path><rect width="40.16" height="33.34" x="206.25" y="173.28" stroke="#020F66" stroke-width="4" rx="6"></rect><path fill="#020F66" d="M225 189.16a2.35 2.35 0 0 1-1.26-2.06v-.71a2.44 2.44 0 0 1 2.5-2.37c1.4 0 2.52 1.06 2.52 2.37v.71c0 .88-.5 1.65-1.26 2.06v4.7c0 .65-.56 1.18-1.25 1.18-.7 0-1.26-.53-1.26-1.18v-4.7Zm-120.5-58.53v-13.94h-9.78v24.75a30.8 30.8 0 0 0 4.65-2.98c3.43-2.67 5.14-5.28 5.14-7.83Zm4.2-16.72v16.72c0 1.24-.24 2.48-.73 3.7a13.83 13.83 0 0 1-1.81 3.27c-.72.95-1.58 1.88-2.58 2.78a30.12 30.12 0 0 1-5.41 3.93 37.83 37.83 0 0 1-2.89 1.51c-.17.09-.36.13-.56.13-.2 0-.4-.04-.57-.13a24.88 24.88 0 0 1-2.89-1.51 30.12 30.12 0 0 1-5.41-3.93c-1-.9-1.86-1.83-2.58-2.78a13.82 13.82 0 0 1-1.81-3.26 9.96 9.96 0 0 1-.73-3.71V113.9c0-.38.13-.7.41-.98.28-.28.6-.42.98-.42h25.19c.38 0 .7.14.98.42.28.27.41.6.41.98Z"></path></svg>