<svg xmlns="http://www.w3.org/2000/svg" fill="none" viewBox="0 0 320 320"><path stroke="#020F66" stroke-linecap="round" stroke-linejoin="round" stroke-width="2" d="M271.97 266.62a2 2 0 0 0-.66 1.5v.77a2 2 0 0 0 .7 1.53l1.57 1.32a2 2 0 0 1 .55 2.3l-.26.62a2 2 0 0 1-1.93 1.22l-2.24-.1a2 2 0 0 0-1.5.58l-.54.54a2 2 0 0 0-.58 1.6l.18 2.03a2 2 0 0 1-1.22 2.02l-.62.26a2 2 0 0 1-2.25-.5l-1.46-1.62a2 2 0 0 0-1.48-.65h-.8a2 2 0 0 0-1.53.7l-1.33 1.57a2 2 0 0 1-2.3.55l-.63-.27a2 2 0 0 1-1.22-1.93l.1-2.21a2 2 0 0 0-.6-1.5l-.54-.55a2 2 0 0 0-1.58-.57l-2.07.18a2 2 0 0 1-2.02-1.22l-.25-.6a2 2 0 0 1 .5-2.26l1.62-1.45a2 2 0 0 0 .66-1.48v-.8a2 2 0 0 0-.7-1.51l-1.6-1.38a2 2 0 0 1-.53-2.3l.26-.63a2 2 0 0 1 1.93-1.22l2.25.1a2 2 0 0 0 1.5-.58l.54-.54a2 2 0 0 0 .58-1.6l-.18-2.16a2 2 0 0 1 1.22-2.02l.6-.25a2 2 0 0 1 2.27.51l1.52 1.72a2 2 0 0 0 1.5.67h.79a2 2 0 0 0 1.52-.71l1.33-1.56a2 2 0 0 1 2.3-.55l.63.26a2 2 0 0 1 1.22 1.93l-.1 2.22a2 2 0 0 0 .6 1.5l.54.54a2 2 0 0 0 1.59.58l2.06-.18a2 2 0 0 1 2.02 1.21l.25.6a2 2 0 0 1-.5 2.26l-1.68 1.51Zm-14.12-2.59a4.85 4.85 0 0 0-2.68 6.38 4.9 4.9 0 1 0 2.68-6.38Zm31.77-95.14a2 2 0 0 0-.67 1.48v.78a2 2 0 0 0 .72 1.53l1.56 1.32a2 2 0 0 1 .55 2.3l-.26.62a2 2 0 0 1-1.93 1.22l-2.24-.1a2 2 0 0 0-1.5.59l-.55.54a2 2 0 0 0-.58 1.6l.18 2.02a2 2 0 0 1-1.22 2.03l-.6.25a2 2 0 0 1-2.26-.5l-1.46-1.61a2 2 0 0 0-1.49-.66h-.8a2 2 0 0 0-1.52.7l-1.33 1.57a2 2 0 0 1-2.3.55l-.63-.26a2 2 0 0 1-1.23-1.94l.1-2.21a2 2 0 0 0-.59-1.5l-.54-.55a2 2 0 0 0-1.59-.57l-2.06.18a2 2 0 0 1-2.02-1.22l-.25-.6a2 2 0 0 1 .5-2.26l1.61-1.44a2 2 0 0 0 .67-1.5v-.79a2 2 0 0 0-.7-1.51l-1.6-1.38a2 2 0 0 1-.54-2.3l.27-.62a2 2 0 0 1 1.93-1.22l2.24.1a2 2 0 0 0 1.5-.59l.55-.54a2 2 0 0 0 .58-1.59l-.19-2.17a2 2 0 0 1 1.22-2.02l.6-.25a2 2 0 0 1 2.27.51l1.53 1.72a2 2 0 0 0 1.5.67h.78a2 2 0 0 0 1.53-.7l1.33-1.57a2 2 0 0 1 2.3-.55l.63.26a2 2 0 0 1 1.22 1.94l-.1 2.2a2 2 0 0 0 .6 1.51l.54.54a2 2 0 0 0 1.58.58l2.07-.18a2 2 0 0 1 2.02 1.21l.25.6a2 2 0 0 1-.5 2.27l-1.68 1.5Zm-14.13-2.6a4.88 4.88 0 1 0 3.73 9.04 4.9 4.9 0 1 0-3.73-9.03ZM263.82 56.22a2 2 0 0 0-.66 1.48v.78a2 2 0 0 0 .71 1.53l1.56 1.32a2 2 0 0 1 .56 2.3l-.26.62a2 2 0 0 1-1.93 1.22l-2.25-.1a2 2 0 0 0-1.5.58l-.54.55a2 2 0 0 0-.58 1.6l.18 2.02a2 2 0 0 1-1.22 2.03l-.61.25a2 2 0 0 1-2.25-.5l-1.47-1.61a2 2 0 0 0-1.48-.66h-.8a2 2 0 0 0-1.53.7l-1.32 1.57a2 2 0 0 1-2.3.55l-.63-.26a2 2 0 0 1-1.23-1.94l.1-2.21a2 2 0 0 0-.59-1.5l-.54-.55a2 2 0 0 0-1.59-.57l-2.06.18a2 2 0 0 1-2.02-1.22l-.25-.6a2 2 0 0 1 .5-2.26l1.61-1.44a2 2 0 0 0 .66-1.5v-.79a2 2 0 0 0-.69-1.51l-1.6-1.38a2 2 0 0 1-.54-2.3l.27-.62a2 2 0 0 1 1.93-1.22l2.24.1a2 2 0 0 0 1.5-.59l.55-.54a2 2 0 0 0 .58-1.59l-.19-2.17a2 2 0 0 1 1.22-2.02l.6-.25a2 2 0 0 1 2.27.51l1.53 1.72a2 2 0 0 0 1.5.67h.78a2 2 0 0 0 1.53-.7l1.33-1.57a2 2 0 0 1 2.3-.55l.62.26a2 2 0 0 1 1.23 1.93l-.1 2.22a2 2 0 0 0 .59 1.5l.54.55a2 2 0 0 0 1.6.57l2.06-.18a2 2 0 0 1 2.01 1.21l.26.6a2 2 0 0 1-.5 2.27l-1.69 1.5Zm-14.12-2.6a4.88 4.88 0 1 0 3.72 9.04 4.9 4.9 0 1 0-3.72-9.04Zm-124.34-6.91a2 2 0 0 0-.66 1.5v.77a2 2 0 0 0 .71 1.53l1.56 1.32a2 2 0 0 1 .56 2.3l-.26.62a2 2 0 0 1-1.93 1.22l-2.25-.1a2 2 0 0 0-1.5.58l-.54.54a2 2 0 0 0-.58 1.6l.18 2.03a2 2 0 0 1-1.22 2.02l-.61.26a2 2 0 0 1-2.26-.5l-1.46-1.61a2 2 0 0 0-1.48-.66h-.8a2 2 0 0 0-1.53.7l-1.33 1.57a2 2 0 0 1-2.3.55l-.62-.27a2 2 0 0 1-1.23-1.93l.1-2.21a2 2 0 0 0-.59-1.5l-.54-.55a2 2 0 0 0-1.6-.57l-2.06.18a2 2 0 0 1-2.01-1.22l-.26-.6a2 2 0 0 1 .51-2.26l1.6-1.45a2 2 0 0 0 .67-1.48v-.8a2 2 0 0 0-.7-1.51l-1.6-1.38a2 2 0 0 1-.53-2.3l.27-.62a2 2 0 0 1 1.93-1.23l2.24.1a2 2 0 0 0 1.5-.58l.54-.54a2 2 0 0 0 .58-1.6l-.18-2.16a2 2 0 0 1 1.22-2.02l.6-.25a2 2 0 0 1 2.27.51l1.53 1.72a2 2 0 0 0 1.49.67h.8a2 2 0 0 0 1.52-.7l1.33-1.57a2 2 0 0 1 2.29-.55l.63.26a2 2 0 0 1 1.23 1.93l-.1 2.22a2 2 0 0 0 .59 1.5l.54.54a2 2 0 0 0 1.59.58l2.07-.18a2 2 0 0 1 2.01 1.21l.25.6a2 2 0 0 1-.5 2.27l-1.68 1.5Zm-14.12-2.59a4.88 4.88 0 1 0 3.72 9.04 4.9 4.9 0 1 0-3.72-9.04Zm-52.39 85.4a2 2 0 0 0-.67 1.49v.78a2 2 0 0 0 .72 1.53l1.56 1.31a2 2 0 0 1 .55 2.3l-.26.62a2 2 0 0 1-1.93 1.22l-2.24-.1a2 2 0 0 0-1.5.59l-.54.54a2 2 0 0 0-.59 1.6l.18 2.03a2 2 0 0 1-1.22 2.02l-.6.26a2 2 0 0 1-2.26-.5l-1.46-1.62a2 2 0 0 0-1.49-.66h-.8a2 2 0 0 0-1.52.7l-1.33 1.57a2 2 0 0 1-2.3.55l-.63-.26a2 2 0 0 1-1.23-1.93l.1-2.22a2 2 0 0 0-.59-1.5l-.54-.54a2 2 0 0 0-1.59-.58l-2.06.18a2 2 0 0 1-2.02-1.21l-.25-.6a2 2 0 0 1 .5-2.27l1.61-1.44a2 2 0 0 0 .67-1.49v-.8a2 2 0 0 0-.7-1.5l-1.6-1.39a2 2 0 0 1-.54-2.29l.27-.63a2 2 0 0 1 1.93-1.22l2.24.1a2 2 0 0 0 1.5-.58l.55-.55a2 2 0 0 0 .58-1.59l-.19-2.17a2 2 0 0 1 1.22-2.01l.6-.26a2 2 0 0 1 2.27.52l1.53 1.71a2 2 0 0 0 1.5.67h.79a2 2 0 0 0 1.52-.7l1.33-1.57a2 2 0 0 1 2.3-.55l.63.27a2 2 0 0 1 1.22 1.93l-.1 2.21a2 2 0 0 0 .6 1.5l.54.55a2 2 0 0 0 1.58.57l2.07-.18a2 2 0 0 1 2.02 1.22l.25.6a2 2 0 0 1-.5 2.26l-1.68 1.51Zm-14.13-2.6a4.85 4.85 0 0 0-2.68 6.38 4.9 4.9 0 1 0 2.68-6.38Zm77.93 136.99a2 2 0 0 0-.66 1.49v.78a2 2 0 0 0 .7 1.53l1.57 1.31a2 2 0 0 1 .55 2.3l-.26.62a2 2 0 0 1-1.93 1.22l-2.24-.1a2 2 0 0 0-1.5.59l-.54.54a2 2 0 0 0-.59 1.6l.19 2.03a2 2 0 0 1-1.22 2.02l-.62.26a2 2 0 0 1-2.25-.5l-1.46-1.62a2 2 0 0 0-1.49-.66h-.8a2 2 0 0 0-1.52.7l-1.33 1.57a2 2 0 0 1-2.3.55l-.63-.26a2 2 0 0 1-1.22-1.93l.1-2.22a2 2 0 0 0-.6-1.5l-.54-.55a2 2 0 0 0-1.59-.57l-2.06.18a2 2 0 0 1-2.02-1.21l-.25-.6a2 2 0 0 1 .5-2.27l1.61-1.44a2 2 0 0 0 .67-1.49v-.8a2 2 0 0 0-.7-1.5l-1.6-1.39a2 2 0 0 1-.53-2.29l.26-.63a2 2 0 0 1 1.93-1.22l2.25.1a2 2 0 0 0 1.5-.58l.54-.55a2 2 0 0 0 .58-1.59l-.19-2.17a2 2 0 0 1 1.23-2.01l.6-.26a2 2 0 0 1 2.27.52l1.52 1.71a2 2 0 0 0 1.5.67h.79a2 2 0 0 0 1.52-.7l1.33-1.57a2 2 0 0 1 2.3-.55l.63.27a2 2 0 0 1 1.22 1.93l-.1 2.21a2 2 0 0 0 .6 1.5l.54.55a2 2 0 0 0 1.59.57l2.06-.18a2 2 0 0 1 2.02 1.22l.25.6a2 2 0 0 1-.5 2.26l-1.68 1.51Zm-14.13-2.6a4.85 4.85 0 0 0-2.67 6.38 4.9 4.9 0 1 0 2.68-6.38Z"></path><path stroke="#020F66" stroke-linecap="round" stroke-linejoin="round" stroke-width="4" d="M162.08 218.82c32.13 0 58.17-25.3 58.17-56.5 0-31.22-26.04-56.51-58.17-56.51s-58.18 25.3-58.18 56.5c0 31.21 26.05 56.51 58.18 56.51Z"></path><path stroke="#020F66" stroke-linecap="round" stroke-linejoin="round" stroke-width="2" d="M277.42 203.33a32.6 32.6 0 0 1-31.9-25.93m31.9-39.23a32.65 32.65 0 0 0-31.17 23.08m60.47-4.75a32.4 32.4 0 0 1 3.28 14.25c0 8.02-2.9 15.37-7.7 21.04m-159.95 73.98c0-5.1-1.17-9.94-3.27-14.25m-29.3 46.83a32.61 32.61 0 0 1-31.9-25.93m.72-16.15a32.65 32.65 0 0 1 25.74-22.62M284.2 58.08c0 8.98-3.62 17.1-9.5 23a32.48 32.48 0 0 1-23.07 9.58m-32.58-32.58c0 6.22 1.74 12.03 4.76 16.97m27.82-49.55a32.5 32.5 0 0 0-16.3 4.36m47.47 18.72a32.67 32.67 0 0 0-14.88-18.72M15.13 137.17a32.48 32.48 0 0 1 5.76-24.2 32.48 32.48 0 0 1 21.28-13.1m37.3 27.04a32.43 32.43 0 0 0-7.37-16.01m-19.67 53.3a32.42 32.42 0 0 0 15.4-6.86m-49.81-11.01a32.67 32.67 0 0 0 17.64 16.14M145.75 48.58a32.5 32.5 0 0 1-11.54 24.87m-21.04 7.7c-18 0-32.58-14.58-32.58-32.57M113.17 16a32.58 32.58 0 0 0-29.3 18.33m178.31 202.13a32.5 32.5 0 0 1 24.16 12.98m6.45 21.46a32.58 32.58 0 0 1-34.43 30.61m-30.61-34.44a32.58 32.58 0 0 0 16.57 30.33M137.98 109.13l-15.8-36.57m113.02 5.82-33.23 39.89M73.99 139.88l30.75 9.14m17.45 94.73 15.79-29.91m63.99-9.97 39.89 45.7M251 167.3l-30.75-3.32"></path><circle cx="161.01" cy="133.88" r="17.32" stroke="#020F66" stroke-width="4"></circle><path stroke="#020F66" stroke-width="4" d="M183.1 160.82a29.93 29.93 0 0 0-22.1-9.62c-13.72 0-25.27 9.08-28.65 21.41"></path><path stroke="#020F66" stroke-linecap="round" stroke-linejoin="round" stroke-miterlimit="10" stroke-width="4" d="M186.4 160.5a18.98 18.98 0 0 0-17.54 12.07H127.8l-7.69 7.82 6.36 6.45h9.34l4.83-4.9 4.64 4.58 1.65-1.68 1.85 1.88 4.5-4.59 4.4 4.46h11.12a18.92 18.92 0 0 0 17.6 12.27c10.43 0 18.88-8.6 18.88-19.18 0-10.6-8.39-19.19-18.88-19.19Zm8.71 24.02a4.8 4.8 0 0 1-4.77-4.84 4.76 4.76 0 1 1 9.53 0 4.8 4.8 0 0 1-4.76 4.84Z"></path><path stroke="#2CDDE9" stroke-linecap="round" stroke-width="2" d="M130.7 176.7h33.2m7.7.97c.33-1.99.99-3.85 1.91-5.51 2.65-4.78 7.47-7.97 12.98-7.97 1.16 0 2.3.15 3.4.42"></path></svg>