<svg xmlns="http://www.w3.org/2000/svg" fill="none" viewBox="0 0 320 320"><path stroke="#020F66" stroke-linecap="round" stroke-linejoin="round" stroke-width="2" d="M152.57 271.04h96.96"></path><path stroke="#020F66" stroke-linejoin="round" stroke-width="2" d="M183.55 241.34v29.75m31.41-29.75v29.75"></path><path stroke="#020F66" stroke-width="4" d="M210.26 98.26H292a18 18 0 0 1 18 18v105.77a18 18 0 0 1-18 18H108.1a18 18 0 0 1-18-18v-31.97"></path><path stroke="#2CDDE9" stroke-width="2" d="M212.37 104.97h80.02a11 11 0 0 1 11 11v106.1a11 11 0 0 1-11 11H107.78a11 11 0 0 1-11-11v-26.84"></path><path stroke="#020F66" stroke-linecap="round" stroke-linejoin="round" stroke-width="4" d="M57.6 126.53a78.53 78.53 0 1 0 157.06 0 78.53 78.53 0 0 0-157.06 0Z"></path><path stroke="#2CDDE9" stroke-linecap="round" stroke-linejoin="round" stroke-width="2" d="M64.55 126.46c0 39.25 32.19 71.08 71.9 71.08m0-142.15c39.7 0 71.9 31.82 71.9 71.07"></path><path stroke="#020F66" stroke-linecap="round" stroke-linejoin="round" stroke-width="4" d="m73.44 174.52-12 12-44.15 44.15a10.31 10.31 0 0 0 0 14.58v0a10.31 10.31 0 0 0 14.59 0l44.14-44.14 12-12m8.37-58.13 26.52 27.19 53.35-52.92"></path></svg>